<svg version="1.1" id="Layer_1" xmlns="http://www.w3.org/2000/svg" xmlns:xlink="http://www.w3.org/1999/xlink" x="0px" y="0px"
   viewBox="0 0 236 66" enable-background="new 0 0 236 66" xml:space="preserve">
<g>
  <path d="M128.7,24.9c0.5,0,0.9,0,1.3,0.1v-2.7c-0.6,0-1.3-0.1-1.9-0.1c-3,0-4.4,1.7-4.4,4v1h-2.2v2.4h2.2v10.8h3.6V29.7h2.5v-2.4
    h-2.5v-0.8C127.3,25.3,127.7,24.9,128.7,24.9z"/>
  <path d="M106.5,38.4c-1.4,0-2.8-0.6-2.8-2.2h-3.5c0.2,3.5,3.2,4.7,6.2,4.7c3,0,6.1-1.1,6.1-4.6c0-2.5-2.1-3.2-4.2-3.7
    c-2.1-0.5-4.1-0.7-4.1-2c0-1.1,1.2-1.2,2-1.2c1.3,0,2.4,0.4,2.5,1.8h3.5c-0.3-3.3-3-4.2-5.9-4.2c-2.9,0-5.8,0.9-5.8,4.3
    c0,2.3,2.1,3.1,4.2,3.5c2.6,0.6,4.1,1,4.1,2.1C108.9,38,107.5,38.4,106.5,38.4z"/>
  <path d="M114.8,23.2v4h-2.2v2.4h2.2v7.8c0,2.6,2,3.2,4.2,3.2c0.7,0,1.5,0,2.1-0.1v-2.9c-0.4,0.1-0.7,0.1-1.1,0.1
    c-1.2,0-1.5-0.3-1.5-1.5v-6.6h2.7v-2.4h-2.7v-4H114.8z"/>
  <path d="M93.1,26.9c-4,0-6.8,3-6.8,7c0,4.1,2.6,7,6.8,7c3,0,5.2-1.3,6.2-4.5h-3.2c-0.2,0.8-1.4,1.7-2.9,1.7c-2,0-3.2-1-3.3-3.4h9.6
    C99.8,30.7,97.6,26.9,93.1,26.9z M89.9,32.4c0.1-1,0.7-2.8,3-2.8c1.8,0,2.6,1,2.9,2.8H89.9z"/>
  <polygon points="80.4,36.2 80.4,36.2 78.1,27.2 74.6,27.2 72.4,36.2 72.3,36.2 69.9,27.2 66,27.2 70.3,40.5 74,40.5 76.3,31.6
    76.3,31.6 78.7,40.5 82.4,40.5 86.6,27.2 82.9,27.2   "/>
  <path d="M58,33C58,18.8,46.5,7.4,32.3,7.4C18.2,7.4,6.7,18.8,6.7,33s11.5,25.6,25.6,25.6C46.5,58.6,58,47.2,58,33z M31.2,48.4
    c0,0,2.9-2.4,2.4-5.1l-1.5-9.9c-1.6,1.6-3.2,3.2-4.9,5.1c0.1,1.2,0,2.5-0.5,3.6c-1.4,2.8-6.5,7-6.5,7l-0.9-0.9c0,0,1.6-1.6,2-2.7
    c0.2-0.5,0.2-1,0.3-1.5c0.1-2-1.5-10.7-2.9-17.7c-0.4-2.2-0.6-2.7-1.9-2.6c-0.6,0-2,0.6-2,0.6l-0.4-1.1l10-4.2L27,35.6l4.7-4.7
    L30.9,26c-0.1-0.8-0.4-1.7-1.5-1.8c-0.9-0.1-2.6,0.7-2.6,0.7l-0.4-1.1l10-4.6l2.7,16.1c0,0,3.4-3.5,3.6-3.8c0.6-0.7,0.5-2,0-4.9
    c-0.3-1.4-0.5-2.8-1.4-3.1c-1-0.3-2.7,0.5-2.7,0.5l-0.4-1l9.1-4c0,0,1.4,5.7,1.2,5.7c0.4,2.9-0.1,3.6-0.7,4.6
    c-0.7,1-2.4,2.7-2.4,2.7c-2,2-6,6-6,6s0.1,3.1-0.6,4.5c-1.5,2.9-6.7,7-6.7,7L31.2,48.4z"/>
  <rect x="151.2" y="22.2" width="3.6" height="18.3"/>
  <rect x="178.9" y="22.2" width="3.6" height="18.3"/>
  <path d="M188.3,32.8c-2.3,0.3-4.5,1-4.5,4c0,2.7,2,4,4.5,4c1.6,0,3.3-0.4,4.5-1.6c0,0.4,0.1,0.9,0.3,1.3h3.7
    c-0.3-0.5-0.5-1.8-0.5-3v-6.9c0-3.2-3.2-3.8-5.8-3.8c-3,0-6,1-6.2,4.4h3.6c0.1-1.4,1-2,2.4-2c1.3,0,2.4,0.2,2.4,1.8
    C192.6,32.6,190.6,32.5,188.3,32.8z M192.6,35.4c0,0.8-0.1,3.1-3,3.1c-1.2,0-2.2-0.3-2.2-1.7c0-1.3,1-1.7,2.2-2
    c1.1-0.2,2.4-0.2,3-0.8L192.6,35.4L192.6,35.4z"/>
  <path d="M198.1,22.2v18.3h3.5v-1.7h0.1c0.8,1.5,2.4,2.1,4.4,2.1c2.6,0,5.5-2.1,5.5-7c0-4.9-2.8-7-5.5-7c-1.6,0-3.3,0.6-4.2,2h-0.1
    v-6.7H198.1z M204.7,29.6c2.2,0,3.1,2,3.1,4.3c0,2.2-1,4.2-3.1,4.2c-2.2,0-3.1-2-3.1-4.2C201.6,31.6,202.6,29.6,204.7,29.6z"/>
  <path d="M220,32.5c-2.1-0.5-4.1-0.7-4.1-2c0-1.1,1.2-1.2,2-1.2c1.3,0,2.4,0.4,2.5,1.8h3.5c-0.3-3.3-3-4.2-5.9-4.2
    c-2.9,0-5.8,0.9-5.8,4.3c0,2.3,2.1,3.1,4.2,3.5c2.6,0.6,4.1,1,4.1,2.1c0,1.3-1.3,1.7-2.4,1.7c-1.4,0-2.8-0.6-2.8-2.2h-3.5
    c0.2,3.5,3.2,4.7,6.2,4.7c3,0,6.1-1.1,6.1-4.6C224.2,33.8,222.1,33,220,32.5z"/>
  <path d="M143.4,26.9c-4,0-6.8,3-6.8,7c0,4.1,2.6,7,6.8,7c3,0,5.2-1.3,6.2-4.5h-3.2c-0.2,0.8-1.4,1.7-2.9,1.7c-2,0-3.2-1-3.3-3.4
    h9.6C150.1,30.7,147.9,26.9,143.4,26.9z M140.2,32.4c0.1-1,0.7-2.8,3-2.8c1.8,0,2.6,1,2.9,2.8H140.2z"/>
  <rect x="131.5" y="22.2" width="3.6" height="3"/>
  <rect x="131.5" y="27.2" width="3.6" height="13.3"/>
  <path d="M169.7,40.5V22.2h-3.6v6.7H166c-0.8-1.3-2.4-2-3.9-2c-3.9,0-5.9,3.3-5.9,6.9c0,3.7,2,7.1,6,7.1c1.7,0,3.2-0.6,4-2.1h0v1.7
    C166.2,40.5,169.7,40.5,169.7,40.5z M163.1,38.1c-2.3,0-3.2-2.2-3.2-4.3c0-2.2,0.8-4.2,3.2-4.2c2.4,0,3.1,2.1,3.1,4.2
    C166.2,36,165.5,38.1,163.1,38.1z"/>
</g>
</svg>